<svg width="20" height="20" viewBox="0 0 20 20" fill="none" xmlns="http://www.w3.org/2000/svg">
<g id="heart-3-line">
<path id="Vector" d="M13.7501 2.5C16.2814 2.5 18.3334 4.58333 18.3334 7.5C18.3334 13.3333 12.0834 16.6667 10.0001 17.9167C7.91675 16.6667 1.66675 13.3333 1.66675 7.5C1.66675 4.58333 3.75008 2.5 6.25008 2.5C7.80006 2.5 9.16675 3.33333 10.0001 4.16667C10.8334 3.33333 12.2001 2.5 13.7501 2.5ZM10.7783 15.5032C11.513 15.0404 12.1751 14.5796 12.7958 14.0858C15.2782 12.1108 16.6667 9.95292 16.6667 7.5C16.6667 5.53397 15.3859 4.16667 13.7501 4.16667C12.8535 4.16667 11.8828 4.64092 11.1786 5.34518L10.0001 6.52369L8.82158 5.34518C8.11731 4.64092 7.14666 4.16667 6.25008 4.16667C4.63263 4.16667 3.33341 5.54708 3.33341 7.5C3.33341 9.95292 4.72197 12.1108 7.20436 14.0858C7.82508 14.5796 8.48716 15.0404 9.22183 15.5032C9.47058 15.6599 9.71766 15.8108 10.0001 15.9793C10.2825 15.8108 10.5296 15.6599 10.7783 15.5032Z" fill="#CCCCCC"/>
</g>
</svg>
