<svg width="24" height="25" viewBox="0 0 24 25" fill="none" xmlns="http://www.w3.org/2000/svg">
<g id="copper-coin-line">
<path id="Vector" d="M12.0049 22.5029C6.48204 22.5029 2.00488 18.0258 2.00488 12.5029C2.00488 6.98008 6.48204 2.50293 12.0049 2.50293C17.5277 2.50293 22.0049 6.98008 22.0049 12.5029C22.0049 18.0258 17.5277 22.5029 12.0049 22.5029ZM12.0049 20.5029C16.4232 20.5029 20.0049 16.9212 20.0049 12.5029C20.0049 8.08465 16.4232 4.50293 12.0049 4.50293C7.5866 4.50293 4.00488 8.08465 4.00488 12.5029C4.00488 16.9212 7.5866 20.5029 12.0049 20.5029ZM12.0049 7.55318L16.9546 12.5029L12.0049 17.4527L7.05514 12.5029L12.0049 7.55318ZM12.0049 10.3816L9.88356 12.5029L12.0049 14.6243L14.1262 12.5029L12.0049 10.3816Z" fill="#999999"/>
</g>
</svg>
