<svg width="17" height="16" viewBox="0 0 17 16" fill="none" xmlns="http://www.w3.org/2000/svg">
<g id="x">
<rect width="16" height="16" transform="translate(0.888672)" fill="#2F3444"/>
<path id="Icon (Stroke)" fill-rule="evenodd" clip-rule="evenodd" d="M4.41694 3.52858C4.67729 3.26823 5.0994 3.26823 5.35975 3.52858L8.88835 7.05717L12.4169 3.52858C12.6773 3.26823 13.0994 3.26823 13.3598 3.52858C13.6201 3.78893 13.6201 4.21104 13.3598 4.47138L9.83116 7.99998L13.3598 11.5286C13.6201 11.7889 13.6201 12.211 13.3598 12.4714C13.0994 12.7317 12.6773 12.7317 12.4169 12.4714L8.88835 8.94279L5.35975 12.4714C5.0994 12.7317 4.67729 12.7317 4.41694 12.4714C4.15659 12.211 4.15659 11.7889 4.41694 11.5286L7.94554 7.99998L4.41694 4.47138C4.15659 4.21103 4.15659 3.78892 4.41694 3.52858Z" fill="#CCCCCC"/>
</g>
</svg>
