<svg width="115" height="36" viewBox="0 0 115 36" fill="none" xmlns="http://www.w3.org/2000/svg">
<path d="M8.33667 9.53908L13.8277 16.1523L10.9419 18.6774L6.97395 13.6673C5.41082 16.8737 2.92585 18.6774 0 18.6774V14.8697C2.80561 14.5892 4.60922 11.0621 4.8497 5.97194H0.440881V2.40481H4.8497V0H8.81764V2.40481H12.986V5.97194H8.73747C8.65731 7.25451 8.53707 8.45691 8.33667 9.53908ZM20.4409 10.9419H18.1563V19.5591H14.3086V0.0801606H18.1563V7.21443H20.4409V10.9419Z" fill="#1A2A86"/>
<path d="M41.5631 15.6313H33.6673V20H29.7394V15.6313H21.8436V12.0641H41.5631V15.6313ZM31.4629 7.45491C29.2585 9.45892 26.012 10.6212 22.525 10.6613V7.13427C25.531 7.09419 28.4569 5.8517 29.6192 3.76754H22.8857V0.280563H40.4809V3.80762H33.9078C33.8276 4.08818 33.7074 4.36874 33.6272 4.60922L41.2825 7.49499L39.8396 10.7014L31.4629 7.45491Z" fill="#1A2A86"/>
<path d="M56.5532 5.93186C56.5532 9.45891 53.948 11.7836 50.1404 11.7836C46.3327 11.7836 43.7275 9.45891 43.7275 5.93186C43.7275 2.4048 46.3327 0.0801544 50.1404 0.0801544C53.948 0.0801544 56.5532 2.44488 56.5532 5.93186ZM49.3388 16.1122H62.8859V19.5992H45.4109V12.7856H49.3388V16.1122ZM47.5352 5.93186C47.5352 7.61522 48.6173 8.57715 50.1003 8.57715C51.5832 8.57715 52.6654 7.6553 52.6654 5.93186C52.6654 4.24849 51.5832 3.28657 50.1003 3.28657C48.6574 3.32665 47.5352 4.24849 47.5352 5.93186ZM62.6454 14.509H58.7977V0.0801544H62.6454V14.509Z" fill="#1A2A86"/>
<path d="M69.2183 17.1543C69.2183 18.2364 68.4167 19.038 67.3746 19.038C66.2924 19.038 65.4908 18.2364 65.4908 17.1543C65.4908 16.0721 66.2924 15.2705 67.3746 15.2705C68.4167 15.3106 69.2183 16.1122 69.2183 17.1543Z" fill="#1A2A86"/>
<path d="M76.1122 19.1183C72.7454 19.1183 70.3005 16.7135 70.3005 13.3868C70.3005 10.0601 72.7053 7.65533 76.1122 7.65533C78.9579 7.65533 81.1222 9.49902 81.4829 11.8237H78.1162C77.8356 11.0621 77.1142 10.5411 76.0721 10.5411C74.509 10.5411 73.507 11.7435 73.507 13.3868C73.507 15.0301 74.509 16.2325 76.0721 16.2325C77.1142 16.2325 77.8757 15.7114 78.1562 14.9098H81.523C81.0019 17.475 78.8376 19.1183 76.1122 19.1183Z" fill="#1A2A86"/>
<path d="M93.8676 13.4269C93.8676 16.7535 91.4628 19.1583 88.056 19.1583C84.6492 19.1583 82.2444 16.7535 82.2444 13.4269C82.2444 10.1002 84.6492 7.69542 88.056 7.69542C91.4628 7.69542 93.8676 10.1002 93.8676 13.4269ZM85.4909 13.4269C85.4909 15.1102 86.533 16.3127 88.0961 16.3127C89.6592 16.3127 90.7013 15.1102 90.7013 13.4269C90.7013 11.7435 89.6592 10.5411 88.0961 10.5411C86.533 10.5411 85.4909 11.7435 85.4909 13.4269Z" fill="#1A2A86"/>
<path d="M95.3506 7.9359H98.6772V8.97798C99.3185 8.09622 100.16 7.65533 101.363 7.65533C102.725 7.65533 103.888 8.21646 104.609 9.21846C105.411 8.17638 106.573 7.65533 108.256 7.65533C110.781 7.65533 112.465 9.49902 112.465 12.505V18.8377H109.138V13.1062C109.138 11.4629 108.497 10.5411 107.294 10.5411C106.212 10.5411 105.651 11.3828 105.571 12.9459V18.8778H102.244V13.1062C102.244 11.4629 101.603 10.5411 100.401 10.5411C99.3185 10.5411 98.7574 11.3828 98.6772 12.9459V18.8778H95.3506V7.9359Z" fill="#1A2A86"/>
<path d="M0 28.2981H4.50518V31.9089H0V28.2981ZM0.298136 32.6708H6.72464V33.3996H1.19255V34.824H6.79089V35.5528H0.298136V32.6708ZM3.64389 31.147V29.0269H0.894409V31.147H3.64389ZM5.83023 28.0994H6.69151V32.2402H5.83023V28.0994Z" fill="#1A2A86"/>
<path d="M7.75159 31.3126H15.3044V32.0083H7.75159V31.3126ZM8.18223 29.4576C8.18223 28.4638 9.67291 28.0994 11.4949 28.0994C13.3168 28.0994 14.8075 28.4638 14.8075 29.4576C14.8075 30.4513 13.3168 30.8489 11.4949 30.8489C9.67291 30.8489 8.18223 30.4845 8.18223 29.4576ZM8.24848 33.7971H13.9131V33.234H8.24848V32.5714H14.7744V34.3934H9.10977V34.9234H14.9069V35.5859H8.28161V33.7971H8.24848ZM13.9462 29.4576C13.9462 28.9607 12.853 28.7619 11.528 28.7619C10.2029 28.7619 9.10977 28.9607 9.10977 29.4576C9.10977 29.9545 10.2029 30.1532 11.528 30.1532C12.8199 30.1532 13.9462 29.9545 13.9462 29.4576Z" fill="#1A2A86"/>
<path d="M25.4079 33.7308H22.0621V35.8509H21.1677V33.7308H17.8551V32.9027H25.4079V33.7308ZM18.0207 32.1408V31.3126C19.6439 31.3126 21.2009 29.8551 21.5321 28.0663L22.4265 28.1988C22.3272 28.6957 22.1946 29.1594 21.9628 29.5901L25.2091 31.3789L24.8116 32.1077L21.5652 30.2526C20.704 31.412 19.412 32.1077 18.0207 32.1408Z" fill="#1A2A86"/>
<path d="M30.4431 32.1408C28.9855 32.1408 28.058 31.3458 28.058 30.1863C28.058 29.0269 28.9855 28.2319 30.4431 28.2319C31.9006 28.2319 32.795 29.0269 32.795 30.1863C32.8282 31.3126 31.9006 32.1408 30.4431 32.1408ZM35.1139 35.619L33.6563 34.3934C33.1926 35.089 32.53 35.5197 31.7681 35.5859L30.4762 34.4596C30.0124 35.1222 29.3499 35.5528 28.6211 35.5859V34.7909C29.4493 34.7246 30.1781 33.7309 30.2774 32.5714L31.1387 32.6708C31.1056 33.0683 31.0062 33.4658 30.8406 33.7971L32 34.7578C32.6957 34.5259 33.2919 33.6315 33.3913 32.5714L34.2526 32.7039C34.2195 33.0683 34.1532 33.4327 34.0207 33.764L35.6439 35.0228L35.1139 35.619ZM30.4431 31.412C31.3044 31.412 31.9338 30.9482 31.9338 30.1863C31.9338 29.3913 31.3375 28.9607 30.4431 28.9607C29.5487 28.9607 28.9524 29.4244 28.9524 30.1863C28.9524 30.9482 29.5487 31.412 30.4431 31.412ZM35.0145 32.3064H34.1532V28.0994H35.0145V32.3064Z" fill="#1A2A86"/>
<path d="M36.0414 31.8758H43.5942V32.6708H36.0414V31.8758ZM36.5714 33.3333H37.4658V34.824H43.2298V35.619H36.5714V33.3333ZM36.5714 28.0994H37.4658V30.2526H43.1304V31.0476H36.5714V28.0994Z" fill="#1A2A86"/>
<path d="M49.0932 31.8095L51.4783 34.6253L50.8489 35.1884L48.8282 32.7371C48.2982 34.1946 47.4038 35.0559 46.2444 35.1884V34.3271C47.5032 34.0952 48.2982 32.3395 48.3976 30.0538H46.3769V29.2257H48.3976V28H49.292V29.2257H51.2133V30.0538H49.2589C49.2589 30.7164 49.1926 31.3126 49.0932 31.8095ZM54.0622 32.0083H53.0021V35.6522H52.1409V28.0994H53.0021V31.147H54.0622V32.0083Z" fill="#1A2A86"/>
<path d="M61.7806 33.7309H58.4348V35.8509H57.5404V33.7309H54.2278V32.9027H61.7806V33.7309ZM54.4928 32.1077V31.2795C56.0497 31.147 57.3085 30.352 57.6398 29.0932H54.6915V28.2981H61.3831V29.0932H58.6005C58.5342 29.3582 58.4679 29.6232 58.3354 29.8882L61.6149 31.3458L61.2506 32.0745L57.8717 30.5507C57.1098 31.4783 55.851 32.0083 54.4928 32.1077Z" fill="#1A2A86"/>
<path d="M62.3767 30.3851C62.3767 29.1263 63.3042 28.1988 64.7618 28.1988C66.2525 28.1988 67.1469 29.1263 67.1469 30.3851C67.1469 31.6439 66.2194 32.5714 64.7618 32.5714C63.3042 32.5714 62.3767 31.6439 62.3767 30.3851ZM63.0392 33.1015H63.9336V34.7909H69.5651V35.5859H63.0392V33.1015ZM66.2856 30.3851C66.2856 29.4907 65.6562 28.9275 64.7618 28.9275C63.8674 28.9275 63.238 29.4907 63.238 30.3851C63.238 31.2795 63.8674 31.8427 64.7618 31.8427C65.6893 31.8427 66.2856 31.2795 66.2856 30.3851ZM68.5051 28.0994H69.3664V33.6977H68.5051V28.0994Z" fill="#1A2A86"/>
<path d="M70.3934 31.2795H77.9462V31.9752H70.3934V31.2795ZM70.9235 33.7971H76.5549V33.234H70.8903V32.5714H77.4162V34.3934H71.7516V34.9234H77.5487V35.5859H70.9235V33.7971ZM70.9235 28.1988H77.3831V28.8613H71.7847V29.9213H77.4825V30.5839H70.9235V28.1988Z" fill="#1A2A86"/>
<path d="M78.4761 34.3934H81.5568C82.5837 34.3934 83.5113 34.294 84.0413 34.029V34.8571C83.5444 35.089 82.5837 35.2215 81.5237 35.2215H78.4761V34.3934ZM78.7411 30.6501C78.7411 29.2257 79.7018 28.265 81.0931 28.265C82.4512 28.265 83.445 29.2257 83.445 30.6501C83.445 32.0745 82.4512 33.0352 81.0931 33.0352C79.7018 33.0352 78.7411 32.0745 78.7411 30.6501ZM82.5506 30.6501C82.5506 29.7557 81.9543 29.06 81.0599 29.06C80.1655 29.06 79.5692 29.7557 79.5692 30.6501C79.5692 31.5445 80.1324 32.2402 81.0599 32.2402C81.9543 32.2402 82.5506 31.5445 82.5506 30.6501ZM84.6707 28.0994H85.532V35.6522H84.6707V28.0994Z" fill="#1A2A86"/>
<path d="M88.7786 32.4058V31.6108C90.0374 31.412 90.8655 30.4513 90.9318 29.06H88.8448V28.2981H93.7475V29.06H91.7931C91.7931 29.4244 91.7268 29.7888 91.5943 30.1201L93.9463 31.677L93.4825 32.3395L91.263 30.8489C90.7661 31.7101 89.8717 32.3064 88.7786 32.4058ZM89.143 33.0352H95.6357V35.6522H94.7413V33.7971H89.143V33.0352ZM95.6357 28.0994V32.6046H94.7744V28.0994H95.6357Z" fill="#1A2A86"/>
<path d="M103.785 28.0994V35.6522H102.923V31.9752H100.903C100.406 33.9627 99.0145 35.1884 96.9938 35.1884V34.3603C99.0476 34.3603 100.207 32.7371 100.207 30.2195V29.1925H96.9938V28.3975H101.101V30.2195C101.101 30.5507 101.068 30.882 101.035 31.1801H102.89V28.0994H103.785Z" fill="#1A2A86"/>
<path d="M106.369 34.4596C107.296 34.4596 107.992 34.3603 108.555 34.0952V34.8903C108.058 35.1222 107.296 35.2215 106.335 35.2215H104.944V31.3458H107.164V29.1594H104.944V28.3644H108.025V32.1077H105.772V34.4265H106.369V34.4596ZM112 28.0994V35.6522H111.172V31.942H109.946V35.5528H109.118V28.1656H109.946V31.1801H111.172V28.1325H112V28.0994Z" fill="#1A2A86"/>
</svg>
