<svg width="180" height="32" viewBox="0 0 180 32" fill="none" xmlns="http://www.w3.org/2000/svg">
<g id="logo1">
<path id="Vector" d="M13.3387 15.2625L22.1243 25.8437L17.507 29.8838L11.1583 21.8677C8.65732 26.998 4.68136 29.8838 0 29.8838V23.7916C4.48898 23.3427 7.37475 17.6994 7.75952 9.55511H0.70541V3.8477H7.75952V0H14.1082V3.8477H20.7776V9.55511H13.98C13.8517 11.6072 13.6593 13.5311 13.3387 15.2625ZM32.7054 17.507H29.0501V31.2946H22.8938V0.128257H29.0501V11.5431H32.7054V17.507Z" fill="#1A2A86"/>
<path id="Vector_2" d="M66.501 25.01H53.8677V32H47.5831V25.01H34.9499V19.3026H66.501V25.01ZM50.3406 11.9278C46.8136 15.1342 41.6192 16.9939 36.04 17.0581V11.4148C40.8497 11.3507 45.531 9.36268 47.3907 6.02801H36.6172V0.448853H64.7695V6.09214H54.2525C54.1242 6.54104 53.9318 6.98993 53.8036 7.3747L66.0521 11.9919L63.7434 17.1222L50.3406 11.9278Z" fill="#1A2A86"/>
<path id="Vector_3" d="M90.4851 9.49102C90.4851 15.1343 86.3167 18.8537 80.2245 18.8537C74.1324 18.8537 69.964 15.1343 69.964 9.49102C69.964 3.84773 74.1324 0.128296 80.2245 0.128296C86.3167 0.128296 90.4851 3.91186 90.4851 9.49102ZM78.942 25.7796H100.617V31.3588H72.6574V20.457H78.942V25.7796ZM76.0562 9.49102C76.0562 12.1844 77.7877 13.7235 80.1604 13.7235C82.5332 13.7235 84.2646 12.2485 84.2646 9.49102C84.2646 6.79763 82.5332 5.25856 80.1604 5.25856C77.8518 5.32268 76.0562 6.79763 76.0562 9.49102ZM100.233 23.2145H94.0762V0.128296H100.233V23.2145Z" fill="#1A2A86"/>
<path id="Vector_4" d="M110.749 27.4469C110.749 29.1784 109.467 30.4609 107.799 30.4609C106.068 30.4609 104.785 29.1784 104.785 27.4469C104.785 25.7154 106.068 24.4329 107.799 24.4329C109.467 24.497 110.749 25.7796 110.749 27.4469Z" fill="#1A2A86"/>
<path id="Vector_5" d="M121.779 30.5892C116.393 30.5892 112.481 26.7415 112.481 21.4189C112.481 16.0962 116.328 12.2485 121.779 12.2485C126.332 12.2485 129.795 15.1984 130.373 18.9179H124.986C124.537 17.6994 123.383 16.8658 121.715 16.8658C119.214 16.8658 117.611 18.7896 117.611 21.4189C117.611 24.0481 119.214 25.972 121.715 25.972C123.383 25.972 124.601 25.1383 125.05 23.8557H130.437C129.603 27.96 126.14 30.5892 121.779 30.5892Z" fill="#1A2A86"/>
<path id="Vector_6" d="M150.188 21.483C150.188 26.8056 146.34 30.6533 140.89 30.6533C135.439 30.6533 131.591 26.8056 131.591 21.483C131.591 16.1603 135.439 12.3126 140.89 12.3126C146.34 12.3126 150.188 16.1603 150.188 21.483ZM136.785 21.483C136.785 24.1763 138.453 26.1002 140.954 26.1002C143.455 26.1002 145.122 24.1763 145.122 21.483C145.122 18.7896 143.455 16.8657 140.954 16.8657C138.453 16.8657 136.785 18.7896 136.785 21.483Z" fill="#1A2A86"/>
<path id="Vector_7" d="M152.561 12.6974H157.884V14.3648C158.91 12.9539 160.256 12.2485 162.18 12.2485C164.36 12.2485 166.22 13.1463 167.374 14.7495C168.657 13.0822 170.517 12.2485 173.21 12.2485C177.25 12.2485 179.944 15.1984 179.944 20.0081V30.1403H174.621V20.97C174.621 18.3407 173.595 16.8658 171.671 16.8658C169.94 16.8658 169.042 18.2125 168.914 20.7135V30.2044H163.591V20.97C163.591 18.3407 162.565 16.8658 160.641 16.8658C158.91 16.8658 158.012 18.2125 157.884 20.7135V30.2044H152.561V12.6974Z" fill="#1A2A86"/>
</g>
</svg>
