<svg width="113" height="20" viewBox="0 0 113 20" fill="none" xmlns="http://www.w3.org/2000/svg">
<g id="logo1">
<path id="Vector" d="M8.33667 9.53908L13.8277 16.1523L10.9419 18.6774L6.97395 13.6673C5.41082 16.8737 2.92585 18.6774 0 18.6774V14.8697C2.80561 14.5892 4.60922 11.0621 4.8497 5.97194H0.440881V2.40481H4.8497V0H8.81764V2.40481H12.986V5.97194H8.73747C8.65731 7.25451 8.53707 8.45691 8.33667 9.53908ZM20.4409 10.9419H18.1563V19.5591H14.3086V0.0801606H18.1563V7.21443H20.4409V10.9419Z" fill="#1A2A86"/>
<path id="Vector_2" d="M41.5631 15.6313H33.6673V20H29.7395V15.6313H21.8437V12.0641H41.5631V15.6313ZM31.4629 7.45493C29.2585 9.45893 26.012 10.6213 22.525 10.6613V7.13428C25.531 7.0942 28.4569 5.85172 29.6192 3.76755H22.8857V0.280579H40.4809V3.80763H33.9078C33.8276 4.08819 33.7074 4.36875 33.6272 4.60923L41.2825 7.49501L39.8397 10.7014L31.4629 7.45493Z" fill="#1A2A86"/>
<path id="Vector_3" d="M56.5532 5.93184C56.5532 9.4589 53.9479 11.7835 50.1403 11.7835C46.3327 11.7835 43.7275 9.4589 43.7275 5.93184C43.7275 2.40479 46.3327 0.0801392 50.1403 0.0801392C53.9479 0.0801392 56.5532 2.44487 56.5532 5.93184ZM49.3387 16.1122H62.8858V19.5992H45.4109V12.7856H49.3387V16.1122ZM47.5351 5.93184C47.5351 7.61521 48.6173 8.57713 50.1003 8.57713C51.5832 8.57713 52.6654 7.65529 52.6654 5.93184C52.6654 4.24848 51.5832 3.28655 50.1003 3.28655C48.6574 3.32663 47.5351 4.24848 47.5351 5.93184ZM62.6453 14.509H58.7977V0.0801392H62.6453V14.509Z" fill="#1A2A86"/>
<path id="Vector_4" d="M69.2183 17.1543C69.2183 18.2364 68.4167 19.038 67.3746 19.038C66.2924 19.038 65.4908 18.2364 65.4908 17.1543C65.4908 16.0721 66.2924 15.2705 67.3746 15.2705C68.4167 15.3106 69.2183 16.1122 69.2183 17.1543Z" fill="#1A2A86"/>
<path id="Vector_5" d="M76.1121 19.1183C72.7454 19.1183 70.3005 16.7135 70.3005 13.3868C70.3005 10.0601 72.7053 7.65533 76.1121 7.65533C78.9578 7.65533 81.1221 9.49902 81.4828 11.8237H78.1161C77.8355 11.0621 77.1141 10.5411 76.072 10.5411C74.5089 10.5411 73.5069 11.7435 73.5069 13.3868C73.5069 15.0301 74.5089 16.2325 76.072 16.2325C77.1141 16.2325 77.8756 15.7114 78.1562 14.9098H81.5229C81.0019 17.475 78.8376 19.1183 76.1121 19.1183Z" fill="#1A2A86"/>
<path id="Vector_6" d="M93.8676 13.4269C93.8676 16.7535 91.4628 19.1584 88.056 19.1584C84.6492 19.1584 82.2444 16.7535 82.2444 13.4269C82.2444 10.1002 84.6492 7.69543 88.056 7.69543C91.4628 7.69543 93.8676 10.1002 93.8676 13.4269ZM85.4908 13.4269C85.4908 15.1103 86.5329 16.3127 88.0961 16.3127C89.6592 16.3127 90.7013 15.1103 90.7013 13.4269C90.7013 11.7435 89.6592 10.5411 88.0961 10.5411C86.5329 10.5411 85.4908 11.7435 85.4908 13.4269Z" fill="#1A2A86"/>
<path id="Vector_7" d="M95.3505 7.9359H98.6772V8.97798C99.3185 8.09622 100.16 7.65533 101.363 7.65533C102.725 7.65533 103.888 8.21646 104.609 9.21846C105.411 8.17638 106.573 7.65533 108.256 7.65533C110.781 7.65533 112.465 9.49902 112.465 12.505V18.8377H109.138V13.1062C109.138 11.4629 108.497 10.5411 107.294 10.5411C106.212 10.5411 105.651 11.3828 105.571 12.9459V18.8778H102.244V13.1062C102.244 11.4629 101.603 10.5411 100.401 10.5411C99.3185 10.5411 98.7573 11.3828 98.6772 12.9459V18.8778H95.3505V7.9359Z" fill="#1A2A86"/>
</g>
</svg>
