<svg width="286" height="20" viewBox="0 0 286 20" fill="none" xmlns="http://www.w3.org/2000/svg">
    <path d="M0 0.759496H11.4768V9.95781H0V0.759496ZM0.759493 11.8987H17.1308V13.7553H3.03797V17.384H17.2996V19.2405H0.759493V11.8987ZM9.2827 8.01688V2.61604H2.27848V8.01688H9.2827ZM14.8523 0.253168H17.0464V10.8017H14.8523V0.253168Z" fill="#1A2A86" />
    <path d="M19.7468 8.43882H38.9873V10.211H19.7468V8.43882ZM20.8439 3.71308C20.8439 1.18144 24.6413 0.253168 29.2827 0.253168C33.924 0.253168 37.7215 1.18144 37.7215 3.71308C37.7215 6.24473 33.924 7.25739 29.2827 7.25739C24.6413 7.25739 20.8439 6.32911 20.8439 3.71308ZM21.0126 14.7679H35.443V13.3333H21.0126V11.6456H37.6371V16.2869H23.2067V17.6371H37.9747V19.3249H21.097V14.7679H21.0126ZM35.5274 3.71308C35.5274 2.44726 32.7426 1.94093 29.3671 1.94093C25.9915 1.94093 23.2067 2.44726 23.2067 3.71308C23.2067 4.9789 25.9915 5.48523 29.3671 5.48523C32.6582 5.48523 35.5274 4.9789 35.5274 3.71308Z" fill="#1A2A86" />
    <path d="M64.7256 14.5992H56.2024V20H53.9239V14.5992H45.4851V12.4894H64.7256V14.5992ZM45.907 10.5485V8.43881C50.0421 8.43881 54.0083 4.72574 54.8522 0.168779L57.1307 0.506333C56.8775 1.77216 56.54 2.95359 55.9492 4.05063L64.2193 8.60759L63.2066 10.4641L54.9366 5.7384C52.7425 8.69198 49.4514 10.4641 45.907 10.5485Z" fill="#1A2A86" />
    <path d="M77.5528 10.5485C73.8397 10.5485 71.4768 8.52321 71.4768 5.56963C71.4768 2.61604 73.8397 0.590722 77.5528 0.590722C81.2658 0.590722 83.5443 2.61604 83.5443 5.56963C83.6287 8.43882 81.2658 10.5485 77.5528 10.5485ZM89.4515 19.4093L85.7384 16.2869C84.557 18.0591 82.8692 19.1561 80.9283 19.3249L77.6371 16.4557C76.4557 18.1435 74.7679 19.2405 72.9114 19.3249V17.2996C75.0211 17.1308 76.8777 14.5992 77.1308 11.6456L79.3249 11.8987C79.2405 12.9114 78.9874 13.924 78.5654 14.7679L81.519 17.2152C83.2912 16.6245 84.8101 14.346 85.0633 11.6456L87.2574 11.9831C87.173 12.9114 87.0042 13.8397 86.6667 14.6835L90.8017 17.8903L89.4515 19.4093ZM77.5528 8.69199C79.7469 8.69199 81.3502 7.51055 81.3502 5.56963C81.3502 3.54431 79.8312 2.44726 77.5528 2.44726C75.2743 2.44726 73.7553 3.6287 73.7553 5.56963C73.7553 7.51055 75.2743 8.69199 77.5528 8.69199ZM89.1983 10.9705H87.0042V0.253168H89.1983V10.9705Z" fill="#1A2A86" />
    <path d="M91.8143 9.87342H111.055V11.8987H91.8143V9.87342ZM93.1645 13.5865H95.443V17.384H110.127V19.4093H93.1645V13.5865ZM93.1645 0.253168H95.443V5.7384H109.873V7.76372H93.1645V0.253168Z" fill="#1A2A86" />
    <path d="M125.063 9.70463L131.139 16.8776L129.536 18.3122L124.388 12.0675C123.038 15.7806 120.76 17.9747 117.806 18.3122V16.1181C121.013 15.5274 123.038 11.0548 123.291 5.23207H118.144V3.12236H123.291V0H125.57V3.12236H130.464V5.23207H125.485C125.485 6.91983 125.317 8.43881 125.063 9.70463ZM137.722 10.211H135.021V19.4937H132.827V0.253167H135.021V8.01687H137.722V10.211Z" fill="#1A2A86" />
    <path d="M157.384 14.5992H148.861V20H146.582V14.5992H138.143V12.4894H157.384V14.5992ZM138.819 10.4641V8.35443C142.785 8.01687 145.992 5.99156 146.835 2.78481H139.325V0.759491H156.371V2.78481H149.283C149.114 3.45991 148.945 4.13502 148.608 4.81013L156.962 8.52321L156.034 10.3797L147.426 6.49789C145.485 8.86076 142.278 10.211 138.819 10.4641Z" fill="#1A2A86" />
    <path d="M158.903 6.07595C158.903 2.8692 161.266 0.506335 164.979 0.506335C168.776 0.506335 171.055 2.8692 171.055 6.07595C171.055 9.2827 168.692 11.6456 164.979 11.6456C161.266 11.6456 158.903 9.2827 158.903 6.07595ZM160.59 12.9958H162.869V17.2996H177.215V19.3249H160.59V12.9958ZM168.861 6.07595C168.861 3.79747 167.257 2.36287 164.979 2.36287C162.7 2.36287 161.097 3.79747 161.097 6.07595C161.097 8.35443 162.7 9.78903 164.979 9.78903C167.342 9.78903 168.861 8.35443 168.861 6.07595ZM174.515 0.253168H176.709V14.5148H174.515V0.253168Z" fill="#1A2A86" />
    <path d="M179.325 8.35443H198.566V10.1266H179.325V8.35443ZM180.675 14.7679H195.021V13.3333H180.591V11.6456H197.215V16.2869H182.785V17.6371H197.553V19.3249H180.675V14.7679ZM180.675 0.506336H197.131V2.1941H182.869V4.89452H197.384V6.58228H180.675V0.506336Z" fill="#1A2A86" />
    <path d="M199.915 16.2869H207.764C210.38 16.2869 212.742 16.0338 214.093 15.3587V17.4684C212.827 18.0591 210.38 18.3966 207.679 18.3966H199.915V16.2869ZM200.591 6.75106C200.591 3.12236 203.038 0.675109 206.582 0.675109C210.042 0.675109 212.574 3.12236 212.574 6.75106C212.574 10.3797 210.042 12.827 206.582 12.827C203.038 12.827 200.591 10.3797 200.591 6.75106ZM210.295 6.75106C210.295 4.47257 208.776 2.70043 206.498 2.70043C204.219 2.70043 202.7 4.47257 202.7 6.75106C202.7 9.02954 204.135 10.8017 206.498 10.8017C208.776 10.8017 210.295 9.02954 210.295 6.75106ZM215.696 0.253168H217.89V19.4937H215.696V0.253168Z" fill="#1A2A86" />
    <path d="M226.16 11.2236V9.19831C229.367 8.69199 231.477 6.24473 231.646 2.70043H226.329V0.759496H238.819V2.70043H233.84C233.84 3.6287 233.671 4.55696 233.333 5.40085L239.325 9.36709L238.144 11.0549L232.49 7.25739C231.224 9.45148 228.945 10.9705 226.16 11.2236ZM227.089 12.827H243.629V19.4937H241.35V14.7679H227.089V12.827ZM243.629 0.253168V11.73H241.435V0.253168H243.629Z" fill="#1A2A86" />
    <path d="M264.388 0.253168V19.4937H262.194V10.1266H257.046C255.781 15.1899 252.236 18.3122 247.089 18.3122V16.2025C252.321 16.2025 255.274 12.0675 255.274 5.65401V3.03798H247.089V1.01266H257.553V5.65401C257.553 6.4979 257.468 7.34178 257.384 8.10127H262.11V0.253168H264.388Z" fill="#1A2A86" />
    <path d="M270.97 16.4557C273.333 16.4557 275.105 16.2025 276.54 15.5274V17.5527C275.274 18.1435 273.333 18.3966 270.886 18.3966H267.342V8.52321H272.996V2.95359H267.342V0.928276H275.19V10.4641H269.451V16.3713H270.97V16.4557ZM285.316 0.253168V19.4937H283.207V10.0422H280.084V19.2405H277.974V0.421942H280.084V8.10127H283.207V0.337555H285.316V0.253168Z" fill="#1A2A86" />
</svg>