<svg width="20" height="20" viewBox="0 0 20 20" fill="none" xmlns="http://www.w3.org/2000/svg">
<g id="camera">
<g id="Camera">
<path id="Combined Shape" fill-rule="evenodd" clip-rule="evenodd" d="M13.9257 8.39348C13.9257 8.80968 14.2591 9.14265 14.6757 9.14265C15.0924 9.14265 15.4341 8.80968 15.4341 8.39348C15.4341 7.97727 15.0924 7.63599 14.6757 7.63599C14.2591 7.63599 13.9257 7.97727 13.9257 8.39348ZM12.3091 13.4212C11.7174 14.0122 10.9007 14.3785 10.0007 14.3785C9.12574 14.3785 8.30907 14.0372 7.68407 13.4212C7.0674 12.7969 6.72574 11.9812 6.72574 11.1071C6.7174 10.2414 7.05907 9.42567 7.67574 8.80137C8.30074 8.17706 9.12574 7.83577 10.0007 7.83577C10.8757 7.83577 11.7007 8.17706 12.3174 8.79304C12.9341 9.41735 13.2757 10.2414 13.2757 11.1071C13.2674 12.0145 12.9007 12.8302 12.3091 13.4212ZM10.0007 9.0844C9.45906 9.0844 8.95073 9.2925 8.55906 9.68373C8.17573 10.0666 7.96739 10.5744 7.97573 11.0988V11.1071C7.97573 11.6482 8.18406 12.156 8.56739 12.5389C8.95073 12.9218 9.45906 13.1299 10.0007 13.1299C11.1174 13.1299 12.0174 12.2226 12.0257 11.1071C12.0257 10.5661 11.8174 10.0583 11.4341 9.67541C11.0507 9.2925 10.5424 9.0844 10.0007 9.0844Z" fill="#3B4894"/>
<path id="Path" opacity="0.2" d="M14.5337 5.197L14.4503 5.01387C14.2253 4.5394 13.967 3.99001 13.8087 3.6737C13.4253 2.92453 12.767 2.50832 11.9587 2.5H8.03366C7.22533 2.50832 6.57533 2.92453 6.19199 3.6737C6.02533 4.00666 5.74199 4.60599 5.50866 5.09711L5.45866 5.197C5.43366 5.2636 5.36699 5.29689 5.30033 5.29689C3.29199 5.29689 1.66699 6.92841 1.66699 8.92619V13.8707C1.66699 15.8685 3.29199 17.5 5.30033 17.5H14.7003C16.7003 17.5 18.3337 15.8685 18.3337 13.8707V8.92619C18.3337 6.92841 16.7003 5.29689 14.7003 5.29689C14.6253 5.29689 14.567 5.25527 14.5337 5.197Z" fill="#3B4894"/>
</g>
</g>
</svg>
