<svg width="20" height="20" viewBox="0 0 20 20" fill="none" xmlns="http://www.w3.org/2000/svg">
<g id="draft-line">
<path id="Vector" d="M16.6667 1.66667C17.1269 1.66667 17.5 2.03977 17.5 2.50001V5.63084L15.8333 7.2975V3.33334H4.16667V16.6667H15.8333V14.3683L17.5 12.7017V17.5C17.5 17.9603 17.1269 18.3333 16.6667 18.3333H3.33333C2.8731 18.3333 2.5 17.9603 2.5 17.5V2.50001C2.5 2.03977 2.8731 1.66667 3.33333 1.66667H16.6667ZM18.1485 7.33968L19.327 8.51817L12.8452 15L11.6649 14.9983L11.6667 13.8215L18.1485 7.33968ZM10.8333 10V11.6667H6.66667V10H10.8333ZM13.3333 6.66667V8.33334H6.66667V6.66667H13.3333Z" fill="#3B4894"/>
</g>
</svg>
