<svg width="32" height="32" viewBox="0 0 32 32" fill="none" xmlns="http://www.w3.org/2000/svg">
<g id="Frame 1900" clip-path="url(#clip0_12207_2552)">
<circle id="Ellipse 104" cx="16" cy="16" r="15.5" fill="white" stroke="#DDDDDD"/>
<g id="Group">
<path id="Vector" d="M10.9936 15.3123C11.3336 15.3123 11.6092 15.0367 11.6092 14.6967C11.6092 14.3567 11.3336 14.0811 10.9936 14.0811C10.6536 14.0811 10.3779 14.3567 10.3779 14.6967C10.3779 15.0367 10.6536 15.3123 10.9936 15.3123Z" fill="#2DB400"/>
<path id="Vector_2" d="M17.0371 15.3369C17.3979 15.3369 17.6904 15.0444 17.6904 14.6836C17.6904 14.3228 17.3979 14.0303 17.0371 14.0303C16.6763 14.0303 16.3838 14.3228 16.3838 14.6836C16.3838 15.0444 16.6763 15.3369 17.0371 15.3369Z" fill="#2DB400"/>
<path id="Vector_3" d="M22.5145 8H9.48587C8.17924 8 7.11133 9.06792 7.11133 10.3745V18.1012C7.11133 19.4204 8.17924 20.4758 9.48587 20.4758H14.0842L15.6547 24.1821C15.6547 24.1821 15.7677 24.4962 16.019 24.4962C16.2828 24.4962 16.3834 24.1821 16.3834 24.1821L17.9538 20.5009H22.5145C23.8336 20.5009 24.889 19.433 24.889 18.1264V10.3745C24.9016 9.06792 23.8336 8 22.5145 8ZM12.7022 14.8347C12.6896 16.2418 11.2322 16.2921 11.2322 16.2921C10.6669 16.2921 10.3528 15.9151 10.3528 15.9151V16.1664H9.28485V11.7817C9.34767 11.7942 10.3528 11.7817 10.3528 11.7817V13.4652C10.604 13.0381 11.3327 13.0506 11.3327 13.0506C12.8906 13.1888 12.7022 14.8347 12.7022 14.8347ZM14.5742 13.1763V16.179H13.5314V13.2014C13.5314 12.7993 13.0288 12.6863 13.0288 12.6863V11.6309C14.6873 11.7063 14.5742 13.1763 14.5742 13.1763ZM17.0367 16.2921C16.0693 16.2921 15.2903 15.5759 15.2903 14.6839C15.2903 13.7919 16.0693 13.0757 17.0367 13.0757C18.0041 13.0757 18.783 13.7919 18.783 14.6839C18.783 15.5759 18.0041 16.2921 17.0367 16.2921ZM22.7532 16.2921C22.7532 16.2921 22.7657 17.8248 21.2204 17.8248H20.743V16.8323H21.0319C21.0319 16.8323 21.6852 16.8951 21.6727 15.89C21.6727 15.89 21.547 16.2921 20.6299 16.2921C20.6299 16.2921 19.3358 16.2041 19.3358 14.9352V14.4578C19.3358 14.4578 19.361 13.1511 20.7932 13.0381C20.7932 13.0381 21.3586 12.9752 21.6978 13.4401V13.1134H22.7532V16.2921Z" fill="#2DB400"/>
<path id="Vector_4" d="M21.0949 15.3245C21.4487 15.3245 21.7356 15.0376 21.7356 14.6837C21.7356 14.3298 21.4487 14.043 21.0949 14.043C20.741 14.043 20.4541 14.3298 20.4541 14.6837C20.4541 15.0376 20.741 15.3245 21.0949 15.3245Z" fill="#2DB400"/>
</g>
</g>
<defs>
<clipPath id="clip0_12207_2552">
<rect width="32" height="32" fill="white"/>
</clipPath>
</defs>
</svg>
