<svg width="32" height="32" viewBox="0 0 32 32" fill="none" xmlns="http://www.w3.org/2000/svg">
<g clip-path="url(#clip0_12207_2545)">
<circle cx="16" cy="16" r="15.5" fill="white" stroke="#DDDDDD"/>
<g clip-path="url(#clip1_12207_2545)">
<path d="M20.25 8H11.75C9.67893 8 8 9.67893 8 11.75V20.25C8 22.3211 9.67893 24 11.75 24H20.25C22.3211 24 24 22.3211 24 20.25V11.75C24 9.67893 22.3211 8 20.25 8Z" fill="url(#paint0_radial_12207_2545)"/>
<path d="M20.25 8H11.75C9.67893 8 8 9.67893 8 11.75V20.25C8 22.3211 9.67893 24 11.75 24H20.25C22.3211 24 24 22.3211 24 20.25V11.75C24 9.67893 22.3211 8 20.25 8Z" fill="url(#paint1_radial_12207_2545)"/>
<path d="M16.0006 9.75C14.3032 9.75 14.0901 9.75744 13.4235 9.78775C12.7581 9.81825 12.3039 9.92356 11.9066 10.0781C11.4954 10.2377 11.1468 10.4513 10.7994 10.7988C10.4517 11.1462 10.2381 11.4949 10.078 11.9059C9.923 12.3034 9.81756 12.7578 9.78762 13.4228C9.75781 14.0895 9.75 14.3026 9.75 16.0001C9.75 17.6975 9.7575 17.9099 9.78775 18.5765C9.81838 19.2419 9.92369 19.6961 10.0781 20.0934C10.2379 20.5046 10.4514 20.8533 10.7989 21.2006C11.1463 21.5483 11.4949 21.7624 11.9058 21.922C12.3034 22.0766 12.7577 22.1819 13.4229 22.2124C14.0896 22.2427 14.3025 22.2501 15.9998 22.2501C17.6974 22.2501 17.9097 22.2427 18.5764 22.2124C19.2417 22.1819 19.6964 22.0766 20.0941 21.922C20.5051 21.7624 20.8532 21.5483 21.2005 21.2006C21.5482 20.8533 21.7617 20.5046 21.9219 20.0936C22.0755 19.6961 22.181 19.2417 22.2122 18.5766C22.2422 17.91 22.25 17.6975 22.25 16.0001C22.25 14.3026 22.2422 14.0896 22.2122 13.4229C22.181 12.7576 22.0755 12.3034 21.9219 11.9061C21.7617 11.4949 21.5482 11.1462 21.2005 10.7988C20.8529 10.4512 20.5052 10.2376 20.0938 10.0782C19.6953 9.92356 19.2409 9.81819 18.5755 9.78775C17.9088 9.75744 17.6966 9.75 15.9986 9.75H16.0006ZM15.4399 10.8763C15.6063 10.8761 15.792 10.8763 16.0006 10.8763C17.6694 10.8763 17.8671 10.8823 18.5261 10.9123C19.1355 10.9401 19.4663 11.0419 19.6866 11.1275C19.9783 11.2408 20.1862 11.3762 20.4048 11.595C20.6236 11.8138 20.7589 12.0221 20.8725 12.3137C20.9581 12.5337 21.06 12.8645 21.0878 13.4739C21.1177 14.1328 21.1242 14.3306 21.1242 15.9986C21.1242 17.6666 21.1177 17.8646 21.0878 18.5234C21.0599 19.1327 20.9581 19.4635 20.8725 19.6836C20.7593 19.9753 20.6236 20.1829 20.4048 20.4016C20.1861 20.6203 19.9784 20.7557 19.6866 20.869C19.4665 20.9549 19.1355 21.0565 18.5261 21.0844C17.8673 21.1143 17.6694 21.1208 16.0006 21.1208C14.3317 21.1208 14.1339 21.1143 13.4751 21.0844C12.8657 21.0563 12.5349 20.9544 12.3144 20.8689C12.0228 20.7556 11.8144 20.6202 11.5957 20.4014C11.3769 20.1827 11.2416 19.9749 11.128 19.6831C11.0424 19.463 10.9405 19.1322 10.9128 18.5229C10.8828 17.864 10.8768 17.6661 10.8768 15.9971C10.8768 14.3281 10.8828 14.1312 10.9128 13.4723C10.9406 12.8629 11.0424 12.5322 11.128 12.3119C11.2413 12.0202 11.3769 11.8119 11.5958 11.5931C11.8145 11.3744 12.0228 11.2389 12.3145 11.1254C12.5348 11.0395 12.8657 10.9379 13.4751 10.9099C14.0516 10.8839 14.2751 10.8761 15.4399 10.8747V10.8763ZM19.3368 11.9141C18.9228 11.9141 18.5868 12.2497 18.5868 12.6638C18.5868 13.0779 18.9228 13.4138 19.3368 13.4138C19.7509 13.4138 20.0868 13.0779 20.0868 12.6638C20.0868 12.2498 19.7509 11.9138 19.3368 11.9138V11.9141ZM16.0006 12.7904C14.2281 12.7904 12.7909 14.2275 12.7909 16.0001C12.7909 17.7726 14.2281 19.2091 16.0006 19.2091C17.7731 19.2091 19.2098 17.7726 19.2098 16.0001C19.2098 14.2276 17.773 12.7904 16.0004 12.7904H16.0006ZM16.0006 13.9167C17.1511 13.9167 18.0839 14.8494 18.0839 16.0001C18.0839 17.1506 17.1511 18.0834 16.0006 18.0834C14.8499 18.0834 13.9173 17.1506 13.9173 16.0001C13.9173 14.8494 14.8499 13.9167 16.0006 13.9167Z" fill="white"/>
</g>
</g>
<defs>
<radialGradient id="paint0_radial_12207_2545" cx="0" cy="0" r="1" gradientUnits="userSpaceOnUse" gradientTransform="translate(12.25 25.2323) rotate(-90) scale(15.8572 14.7484)">
<stop stop-color="#FFDD55"/>
<stop offset="0.1" stop-color="#FFDD55"/>
<stop offset="0.5" stop-color="#FF543E"/>
<stop offset="1" stop-color="#C837AB"/>
</radialGradient>
<radialGradient id="paint1_radial_12207_2545" cx="0" cy="0" r="1" gradientUnits="userSpaceOnUse" gradientTransform="translate(5.31994 9.15256) rotate(78.681) scale(7.08825 29.218)">
<stop stop-color="#3771C8"/>
<stop offset="0.128" stop-color="#3771C8"/>
<stop offset="1" stop-color="#6600FF" stop-opacity="0"/>
</radialGradient>
<clipPath id="clip0_12207_2545">
<rect width="32" height="32" fill="white"/>
</clipPath>
<clipPath id="clip1_12207_2545">
<rect width="16" height="16" fill="white" transform="translate(8 8)"/>
</clipPath>
</defs>
</svg>
