<svg width="16" height="17" viewBox="0 0 16 17" fill="none" xmlns="http://www.w3.org/2000/svg">
<g id="alarm-warning-line">
<path id="Vector" d="M2.667 13.8334V9.83337C2.667 6.88785 5.05481 4.50004 8.00034 4.50004C10.9459 4.50004 13.3337 6.88785 13.3337 9.83337V13.8334H14.0003V15.1667H2.00033V13.8334H2.667ZM4.00033 13.8334H12.0003V9.83337C12.0003 7.62424 10.2095 5.83337 8.00034 5.83337C5.79119 5.83337 4.00033 7.62424 4.00033 9.83337V13.8334ZM7.33368 1.83337H8.66701V3.83337H7.33368V1.83337ZM13.1858 3.70511L14.1286 4.64793L12.7144 6.06214L11.7715 5.11933L13.1858 3.70511ZM1.87207 4.64793L2.81488 3.70511L4.2291 5.11933L3.28628 6.06214L1.87207 4.64793ZM4.667 9.83337C4.667 7.99244 6.15938 6.50004 8.00034 6.50004V7.83337C6.89574 7.83337 6.00033 8.72877 6.00033 9.83337H4.667Z" fill="#FF0000"/>
</g>
</svg>
