<svg width="56" height="56" viewBox="0 0 56 56" fill="none" xmlns="http://www.w3.org/2000/svg">
<g id="Frame 2650">
<g id="Group">
<path id="Vector" d="M27.9999 50.117C37.7097 50.117 45.5811 42.2456 45.5811 32.5358C45.5811 22.826 37.7097 14.9546 27.9999 14.9546C18.2901 14.9546 10.4187 22.826 10.4187 32.5358C10.4187 42.2456 18.2901 50.117 27.9999 50.117Z" fill="#5D7AFF"/>
<g id="Group_2">
<path id="Vector_2" d="M49.804 39.377H45.967V26.8915C45.967 17.0655 37.9885 9.08701 28.1625 9.08701C18.3365 9.08701 10.358 17.0655 10.358 26.8915V39.377H6.54126V26.8915C6.54126 14.9542 16.2454 5.25 28.1625 5.25C40.0795 5.25 49.7837 14.9542 49.7837 26.8712V39.377H49.804Z" fill="#68DCFF"/>
<g id="Group_3">
<path id="Vector_3" d="M44.688 26.0594C44.688 25.2676 45.3985 24.6789 46.17 24.8007C50.7582 25.5112 54.2501 29.4903 54.2501 34.2612C54.2501 39.0524 50.7379 43.0112 46.17 43.7218C45.3985 43.8436 44.688 43.2548 44.688 42.4631V26.0594Z" fill="#2820FF"/>
</g>
<path id="Vector_4" d="M22.7622 40.3923H17.362C14.0325 40.3923 11.3324 37.6922 11.3324 34.3627V26.0594C11.3324 25.2676 10.6218 24.6789 9.85035 24.8007C5.26218 25.5112 1.75 29.47 1.75 34.2612C1.75 39.0524 5.26218 43.0112 9.83005 43.7218C10.0534 43.7624 22.8434 43.6609 22.8434 43.6609C23.7976 43.6609 24.569 42.8285 24.4675 41.854C24.3863 41.0217 23.6149 40.3923 22.7622 40.3923Z" fill="#2820FF"/>
</g>
</g>
</g>
</svg>
