<svg width="20" height="20" viewBox="0 0 20 20" fill="none" xmlns="http://www.w3.org/2000/svg">
<g id="camera">
<g id="Camera">
<path id="Combined Shape" fill-rule="evenodd" clip-rule="evenodd" d="M13.925 8.39345C13.925 8.80965 14.2583 9.14262 14.675 9.14262C15.0917 9.14262 15.4333 8.80965 15.4333 8.39345C15.4333 7.97724 15.0917 7.63596 14.675 7.63596C14.2583 7.63596 13.925 7.97724 13.925 8.39345ZM12.3083 13.4212C11.7167 14.0122 10.9 14.3785 10 14.3785C9.125 14.3785 8.30834 14.0372 7.68334 13.4212C7.06667 12.7969 6.725 11.9811 6.725 11.1071C6.71667 10.2414 7.05834 9.42564 7.675 8.80134C8.3 8.17703 9.125 7.83574 10 7.83574C10.875 7.83574 11.7 8.17703 12.3167 8.79301C12.9333 9.41732 13.275 10.2414 13.275 11.1071C13.2667 12.0144 12.9 12.8302 12.3083 13.4212ZM9.99999 9.08437C9.45833 9.08437 8.94999 9.29247 8.55833 9.6837C8.17499 10.0666 7.96666 10.5744 7.97499 11.0988V11.1071C7.97499 11.6482 8.18333 12.156 8.56666 12.5389C8.94999 12.9218 9.45833 13.1299 9.99999 13.1299C11.1167 13.1299 12.0167 12.2225 12.025 11.1071C12.025 10.5661 11.8167 10.0583 11.4333 9.67538C11.05 9.29247 10.5417 9.08437 9.99999 9.08437Z" fill="white"/>
<path id="Path" opacity="0.2" d="M14.5334 5.197L14.45 5.01387C14.225 4.5394 13.9667 3.99001 13.8084 3.6737C13.425 2.92453 12.7667 2.50832 11.9584 2.5H8.03335C7.22502 2.50832 6.57502 2.92453 6.19169 3.6737C6.02502 4.00666 5.74169 4.60599 5.50835 5.09711L5.45835 5.197C5.43335 5.2636 5.36669 5.29689 5.30002 5.29689C3.29169 5.29689 1.66669 6.92841 1.66669 8.92619V13.8707C1.66669 15.8685 3.29169 17.5 5.30002 17.5H14.7C16.7 17.5 18.3334 15.8685 18.3334 13.8707V8.92619C18.3334 6.92841 16.7 5.29689 14.7 5.29689C14.625 5.29689 14.5667 5.25527 14.5334 5.197Z" fill="white"/>
</g>
</g>
</svg>
