<svg width="24" height="24" viewBox="0 0 24 24" fill="none" xmlns="http://www.w3.org/2000/svg">
<g id="BGM_uncheck">
<path id="Icon" fill-rule="evenodd" clip-rule="evenodd" d="M12 21C16.9706 21 21 16.9706 21 12C21 7.02944 16.9706 3 12 3C7.02944 3 3 7.02944 3 12C3 16.9706 7.02944 21 12 21Z" fill="#DDDDDD"/>
<path id="Icon_2" fill-rule="evenodd" clip-rule="evenodd" d="M16.1705 10.5455C16.6098 10.1062 16.6098 9.39384 16.1705 8.9545C15.7312 8.51517 15.0188 8.51517 14.5795 8.9545L10.875 12.659L9.4205 11.2045C8.98116 10.7652 8.26884 10.7652 7.8295 11.2045C7.39017 11.6438 7.39017 12.3562 7.8295 12.7955L10.0795 15.0455C10.5188 15.4848 11.2312 15.4848 11.6705 15.0455L16.1705 10.5455Z" fill="#CCCCCC"/>
</g>
</svg>
