<svg width="16" height="16" viewBox="0 0 16 16" fill="none" xmlns="http://www.w3.org/2000/svg">
<g id="draft-line">
<path id="Vector" d="M13.3333 1.33301C13.7015 1.33301 14 1.63149 14 1.99967V4.50434L12.6667 5.83767V2.66634H3.33333V13.333H12.6667V11.4943L14 10.161V13.9997C14 14.3679 13.7015 14.6663 13.3333 14.6663H2.66667C2.29848 14.6663 2 14.3679 2 13.9997V1.99967C2 1.63149 2.29848 1.33301 2.66667 1.33301H13.3333ZM14.5188 5.87141L15.4616 6.81421L10.2761 11.9997L9.33193 11.9983L9.33333 11.0569L14.5188 5.87141ZM8.66667 7.99967V9.33301H5.33333V7.99967H8.66667ZM10.6667 5.33301V6.66634H5.33333V5.33301H10.6667Z" fill="#3B4894"/>
</g>
</svg>
