<svg width="20" height="20" viewBox="0 0 20 20" fill="none" xmlns="http://www.w3.org/2000/svg">
<g id="loop-left-line">
<path id="Vector" d="M10.0001 3.33341C7.70961 3.33341 5.68765 4.48863 4.48711 6.25008H6.66675V7.91675H1.66675V2.91675H3.33341V4.99955C4.85326 2.97646 7.27311 1.66675 10.0001 1.66675C14.6024 1.66675 18.3334 5.39771 18.3334 10.0001H16.6667C16.6667 6.31818 13.682 3.33341 10.0001 3.33341ZM3.33341 10.0001C3.33341 13.682 6.31818 16.6667 10.0001 16.6667C12.2906 16.6667 14.3125 15.5115 15.5131 13.7501H13.3334V12.0834H18.3334V17.0834H16.6667V15.0006C15.1469 17.0237 12.7271 18.3334 10.0001 18.3334C5.39771 18.3334 1.66675 14.6024 1.66675 10.0001H3.33341Z" fill="#3B4894"/>
</g>
</svg>
