<svg width="32" height="31" viewBox="0 0 32 31" fill="none" xmlns="http://www.w3.org/2000/svg">
<path id="Vector" d="M21.3334 20.3337C21.3334 18.8603 17.1547 17.667 12 17.667M21.3334 20.3337C21.3334 21.807 17.1547 23.0003 12 23.0003C6.84537 23.0003 2.66671 21.807 2.66671 20.3337M21.3334 20.3337V26.9163C21.3334 28.435 17.1547 29.667 12 29.667C6.84537 29.667 2.66671 28.4363 2.66671 26.9163V20.3337M21.3334 20.3337C26.432 20.3337 30.6667 19.0177 30.6667 17.667V4.33366M12 17.667C6.84537 17.667 2.66671 18.8603 2.66671 20.3337M12 17.667C6.10937 17.667 1.33337 16.351 1.33337 15.0003V8.33366M12 5.66699C6.10937 5.66699 1.33337 6.86033 1.33337 8.33366M1.33337 8.33366C1.33337 9.80699 6.10937 11.0003 12 11.0003C12 12.351 16.3374 13.667 21.436 13.667C26.5334 13.667 30.6667 12.351 30.6667 11.0003M30.6667 4.33366C30.6667 2.86033 26.5334 1.66699 21.436 1.66699C16.3374 1.66699 12.2054 2.86033 12.2054 4.33366M30.6667 4.33366C30.6667 5.80699 26.5334 7.00033 21.436 7.00033C16.3387 7.00033 12.2054 5.80699 12.2054 4.33366M12.2054 4.33366V17.8883" stroke="#2F3444" stroke-width="2"/>
</svg>
