<svg width="32" height="32" viewBox="0 0 32 32" fill="none" xmlns="http://www.w3.org/2000/svg">
<g id="alarm-warning-line">
<path id="Vector" d="M5.33473 26.6665V18.6665C5.33473 12.7755 10.1104 7.99984 16.0014 7.99984C21.8925 7.99984 26.6681 12.7755 26.6681 18.6665V26.6665H28.0014V29.3332H4.00139V26.6665H5.33473ZM8.00139 26.6665H24.0014V18.6665C24.0014 14.2482 20.4197 10.6665 16.0014 10.6665C11.5831 10.6665 8.00139 14.2482 8.00139 18.6665V26.6665ZM14.6681 2.6665H17.3348V6.6665H14.6681V2.6665ZM26.3724 6.40998L28.258 8.29561L25.4296 11.124L23.5438 9.23841L26.3724 6.40998ZM3.74487 8.29561L5.6305 6.40998L8.45893 9.23841L6.5733 11.124L3.74487 8.29561ZM9.33473 18.6665C9.33473 14.9846 12.3195 11.9998 16.0014 11.9998V14.6665C13.7922 14.6665 12.0014 16.4573 12.0014 18.6665H9.33473Z" fill="white"/>
</g>
</svg>
