<svg width="41" height="41" viewBox="0 0 41 41" fill="none" xmlns="http://www.w3.org/2000/svg">
<g id="Contacts">
<path id="Vector" d="M30.3333 33.8334H31.1666C32.1433 32.8567 32.6899 32.31 33.6666 31.3334V27.1667H30.3333V33.8334Z" fill="#F5BC00"/>
<path id="Vector_2" d="M30.3333 13.8334H31.1666C32.1433 12.8567 32.6899 12.31 33.6666 11.3334V7.16669H30.3333V13.8334Z" fill="#F5BC00"/>
<path id="Vector_3" d="M30.3333 23.8334H31.1666C32.1433 22.8567 32.6899 22.31 33.6666 21.3334V17.1667H30.3333V23.8334Z" fill="#F5BC00"/>
<path id="Vector_4" d="M31.1667 4.66669H7V36.3334H31.1667V4.66669Z" fill="#6C19FF"/>
<path id="Vector_5" d="M31.1666 7.16669H29.5691V13.8334H31.1666V7.16669Z" fill="#2100C4"/>
<path id="Vector_6" d="M31.1666 17.1667H29.5691V23.8334H31.1666V17.1667Z" fill="#2100C4"/>
<path id="Vector_7" d="M31.1666 27.1667H29.5691V33.8334H31.1666V27.1667Z" fill="#2100C4"/>
<path id="Vector_8" d="M22.1108 20.5025L15.2217 20.4975C14.7617 20.4975 14.3892 20.1241 14.3892 19.6633C14.3892 19.2033 14.7625 18.8308 15.2225 18.8308C15.2225 18.8308 15.2225 18.8308 15.2233 18.8308L22.1117 18.8358C22.5717 18.8358 22.9442 19.2091 22.9442 19.67C22.9442 20.13 22.5708 20.5025 22.1108 20.5025Z" fill="#7DEBF5"/>
<path id="Vector_9" d="M21.1858 22.1667H16.1483C14.3683 22.1667 12.8533 23.5109 12.5725 25.3367C14.0933 26.9717 16.2575 28 18.6667 28C21.0758 28 23.24 26.9717 24.7617 25.3367C24.48 23.5109 22.965 22.1667 21.1858 22.1667Z" fill="#3DD9EB"/>
<path id="Vector_10" d="M18.6665 22.9158C16.8007 22.9158 15.2298 21.5216 15.0073 19.6691L14.8265 18.1616C14.5498 15.8591 16.3473 13.8333 18.6665 13.8333C20.9857 13.8333 22.7832 15.8591 22.5065 18.1616L22.3257 19.6691C22.1032 21.5216 20.5323 22.9158 18.6665 22.9158Z" fill="#7DEBF5"/>
</g>
</svg>
