<svg width="20" height="20" viewBox="0 0 20 20" fill="none" xmlns="http://www.w3.org/2000/svg">
<g id="delete-bin-line">
<path id="Vector" d="M14.1666 5.00033H18.3333V6.66699H16.6666V17.5003C16.6666 17.9606 16.2935 18.3337 15.8333 18.3337H4.16663C3.70639 18.3337 3.33329 17.9606 3.33329 17.5003V6.66699H1.66663V5.00033H5.83329V2.50033C5.83329 2.04009 6.20639 1.66699 6.66663 1.66699H13.3333C13.7935 1.66699 14.1666 2.04009 14.1666 2.50033V5.00033ZM15 6.66699H4.99996V16.667H15V6.66699ZM7.49996 9.16699H9.16663V14.167H7.49996V9.16699ZM10.8333 9.16699H12.5V14.167H10.8333V9.16699ZM7.49996 3.33366V5.00033H12.5V3.33366H7.49996Z" fill="#999999"/>
</g>
</svg>
