<svg width="49" height="49" viewBox="0 0 49 49" fill="none" xmlns="http://www.w3.org/2000/svg">
<rect x="0.5" y="0.5" width="48" height="48" rx="24" fill="#F9E000"/>
<g clip-path="url(#clip0_9745_6773)">
<path d="M24.2841 15.5C18.8771 15.5 14.5 18.9642 14.5 23.2477C14.5 26.0332 16.3492 28.4675 19.158 29.8251C18.9473 30.5975 18.409 32.5871 18.3153 33.0319C18.1749 33.5702 18.5026 33.5468 18.7367 33.4064C18.9005 33.2893 21.4285 31.5806 22.5052 30.855C23.0904 30.9486 23.699 30.9954 24.3309 30.9954C29.738 30.9954 34.1151 27.5312 34.1151 23.2477C34.0917 18.9642 29.7146 15.5 24.2841 15.5Z" fill="#401C26"/>
</g>
<defs>
<clipPath id="clip0_9745_6773">
<rect width="19.5917" height="18" fill="white" transform="translate(14.5 15.5)"/>
</clipPath>
</defs>
</svg>
