<svg width="36" height="36" viewBox="0 0 36 36" fill="none" xmlns="http://www.w3.org/2000/svg">
<g id="la:tools">
<path id="Vector" d="M5.90625 3.09375L5.27287 3.69112L3.69112 5.27287L3.09375 5.90625L3.5505 6.64425L5.90625 10.5817L6.22238 11.1442H9.52875L14.0288 15.6094C10.008 19.6481 4.89263 24.7804 4.71263 24.9615C2.94975 26.7232 2.94637 29.61 4.74637 31.2896C6.50475 33.0244 9.37013 33.0694 11.0408 31.2896L11.0745 31.2536L18 24.2932L24.9615 31.2885L25.0661 31.3594C26.8324 33.0244 29.6415 33.0469 31.2896 31.2885V31.2547H31.3234C33.0469 29.4919 33.0649 26.6265 31.2896 24.9604L31.2536 24.9266L25.3834 19.0901C29.3333 18.7211 32.427 15.3855 32.4844 11.3558H32.5193C32.5238 11.3333 32.5193 11.3074 32.5193 11.2849V11.25C32.6295 9.9495 32.3482 8.70525 31.6755 7.62862L30.9037 6.435L25.6646 11.673L24.0829 10.0204L29.4266 4.67663L27.8797 4.04438C26.893 3.61028 25.828 3.38249 24.75 3.375C20.4255 3.375 16.875 6.9255 16.875 11.25C16.875 11.7203 16.9762 12.1286 17.0505 12.5505C16.5589 13.0433 16.1899 13.4471 15.6094 14.0276L11.1442 9.5625V6.22238L10.5817 5.90625L6.64425 3.5505L5.90625 3.09375ZM24.75 5.625C24.9075 5.625 25.0177 5.71725 25.1719 5.73075L20.9182 9.98438L21.6911 10.7933L24.8557 14.0625L25.6286 14.8714L30.0938 10.4062C30.1162 10.665 30.3008 10.854 30.2693 11.1442V11.25C30.2693 14.3483 27.7425 16.875 24.6443 16.875C24.2314 16.875 23.7307 16.7783 23.1682 16.6635L22.5697 16.5589L22.1479 16.9808L9.45787 29.7068H9.42188V29.7428C8.62313 30.6169 7.22475 30.6383 6.29325 29.7068V29.6719H6.25725C5.38312 28.8731 5.36175 27.4748 6.29325 26.5432C6.71962 26.1157 14.976 17.7885 19.0192 13.7464L19.4771 13.2896L19.3005 12.6562C19.1937 12.1948 19.1349 11.7235 19.125 11.25C19.125 8.15175 21.6518 5.625 24.75 5.625ZM6.25725 5.90625L8.89425 7.524V8.649L8.649 8.89425H7.524L5.90625 6.25838L6.25725 5.90625ZM22.7104 19.5818L29.7079 26.5432V26.5781H29.7416C30.6169 27.3769 30.6383 28.7752 29.7079 29.7068H29.6719V29.7428C28.8731 30.6169 27.4748 30.6383 26.5432 29.7068L19.5818 22.7115L22.7104 19.5818Z" fill="#2F3444"/>
</g>
</svg>
