<svg width="186" height="73" viewBox="0 0 186 73" fill="none" xmlns="http://www.w3.org/2000/svg">
<g clip-path="url(#clip0_12023_8077)">
<path d="M145.926 35.8592H2.94342V50.6738H145.926V35.8592Z" fill="#465CA9"/>
<path d="M148.828 0.5H3.58429V3.89267H148.828V0.5Z" fill="black"/>
<path d="M2.91334 56.4203L0.710815 59.0008L8.22283 65.4125L10.4254 62.8321L2.91334 56.4203Z" fill="black"/>
<path d="M146.938 56.2493L139.627 62.8892L141.908 65.4008L149.219 58.7609L146.938 56.2493Z" fill="black"/>
<path d="M17.9466 62.0581H8.18323V65.4508H17.9466V62.0581Z" fill="black"/>
<path d="M141.779 62.0581H132.016V65.4508H141.779V62.0581Z" fill="black"/>
<path d="M111.245 62.0581H76.9413V65.4508H111.245V62.0581Z" fill="black"/>
<path d="M28.69 72.5C23.8649 72.5 19.9445 68.5796 19.9445 63.7545C19.9445 58.9293 23.8649 55.0089 28.69 55.0089C33.5151 55.0089 37.4356 58.967 37.4356 63.7545C37.4356 68.5419 33.5151 72.5 28.69 72.5ZM28.69 58.4393C25.7497 58.4393 23.3371 60.8518 23.3371 63.7922C23.3371 66.7325 25.7497 69.1073 28.69 69.1073C31.6303 69.1073 34.0429 66.6948 34.0429 63.7545C34.0429 60.8141 31.6303 58.4393 28.69 58.4393Z" fill="black"/>
<path d="M47.5759 72.5C42.7507 72.5 38.8303 68.5796 38.8303 63.7545C38.8303 58.9293 42.7507 55.0089 47.5759 55.0089C52.401 55.0089 56.3214 58.9293 56.3214 63.7545C56.3214 68.5796 52.401 72.5 47.5759 72.5ZM47.5759 58.4393C44.6356 58.4393 42.223 60.8518 42.223 63.7922C42.223 66.7325 44.6356 69.145 47.5759 69.145C50.5162 69.145 52.9288 66.7325 52.9288 63.7922C52.9288 60.8518 50.5539 58.4393 47.5759 58.4393Z" fill="black"/>
<path d="M66.6126 72.5C61.7874 72.5 57.867 68.5796 57.867 63.7545C57.867 58.9293 61.7874 55.0089 66.6126 55.0089C71.4377 55.0089 75.3581 58.9293 75.3581 63.7545C75.3581 68.5796 71.4377 72.5 66.6126 72.5ZM66.6126 58.4393C63.6722 58.4393 61.2597 60.8518 61.2597 63.7922C61.2597 66.7325 63.6722 69.145 66.6126 69.145C69.5529 69.145 71.9654 66.7325 71.9654 63.7922C71.9654 60.8518 69.5529 58.4393 66.6126 58.4393Z" fill="black"/>
<path d="M121.461 72.5C116.636 72.5 112.715 68.5796 112.715 63.7545C112.715 58.9293 116.636 55.0089 121.461 55.0089C126.286 55.0089 130.206 58.9293 130.206 63.7545C130.206 68.5796 126.286 72.5 121.461 72.5ZM121.461 58.4393C118.52 58.4393 116.108 60.8518 116.108 63.7922C116.108 66.7325 118.52 69.145 121.461 69.145C124.401 69.145 126.814 66.7325 126.814 63.7922C126.814 60.8518 124.401 58.4393 121.461 58.4393Z" fill="black"/>
<path d="M159.346 72.5C154.52 72.5 150.6 68.5796 150.6 63.7545C150.6 58.9293 154.52 55.0089 159.346 55.0089C164.171 55.0089 168.091 58.9293 168.091 63.7545C168.091 68.5796 164.133 72.5 159.346 72.5ZM159.346 58.4393C156.405 58.4393 153.993 60.8518 153.993 63.7922C153.993 66.7325 156.405 69.145 159.346 69.145C162.286 69.145 164.698 66.7325 164.698 63.7922C164.698 60.8518 162.286 58.4393 159.346 58.4393Z" fill="black"/>
<path d="M179.438 65.4508H165.302V62.0581H178.646C179.061 61.7189 180.003 60.7388 180.795 58.4016H168.77L168.28 57.6853C162.814 49.8068 156.594 53.0487 156.33 53.1995L153.842 54.5189V51.6916V17.5764H177.025L177.515 18.0288C177.779 18.255 184.112 24.2487 185.394 43.0592C186.713 62.0958 180.493 65.0738 179.815 65.3754L179.438 65.4508ZM170.504 55.0466H181.586C182.039 52.2571 182.265 48.4874 181.926 43.2853C180.946 28.7723 176.837 22.5901 175.555 21.0068H157.197V49.3922C160.288 48.6759 165.754 48.6759 170.504 55.0466Z" fill="black"/>
<path d="M181.963 46.5272L164.661 40.6843V27.6414H180.229V31.034H168.053V38.2717L183.056 43.323L181.963 46.5272Z" fill="black"/>
<path d="M3.88583 0.575378H0.493164V58.8916H3.88583V0.575378Z" fill="black"/>
<path d="M149.281 0.575378H145.888V58.8916H149.281V0.575378Z" fill="black"/>
<path d="M30.9141 23.6079L36.0785 29.8278L33.3643 32.2026L29.6324 27.4906C28.1622 30.5063 25.8251 32.2026 23.0732 32.2026V28.6215C25.712 28.3576 27.4083 25.0403 27.6345 20.2529H23.4879V16.8979H27.6345V14.6361H31.3664V16.8979H35.2869V20.2529H31.291C31.2156 21.4592 31.1026 22.5901 30.9141 23.6079ZM42.2984 24.9272H40.1497V33.032H36.5308V14.7115H40.1497V21.4215H42.2984V24.9272Z" fill="#465CA9"/>
<path d="M62.1643 29.3377H54.7382V33.4466H51.0439V29.3377H43.6177V25.9827H62.1643V29.3377ZM52.6649 21.6477C50.5916 23.5325 47.5382 24.6257 44.2586 24.6634V21.3461C47.0858 21.3084 49.8376 20.1398 50.9308 18.1796H44.5978V14.9H61.1465V18.2173H54.9643C54.8889 18.4812 54.7759 18.7451 54.7005 18.9712L61.9005 21.6854L60.5434 24.7011L52.6649 21.6477Z" fill="#465CA9"/>
<path d="M76.2628 20.2152C76.2628 23.5325 73.8125 25.7188 70.2314 25.7188C66.6502 25.7188 64.2 23.5325 64.2 20.2152C64.2 16.8979 66.6502 14.7115 70.2314 14.7115C73.8125 14.7115 76.2628 16.9356 76.2628 20.2152ZM69.4774 29.7901H82.2188V33.0696H65.7832V26.6613H69.4774V29.7901ZM67.7811 20.2152C67.7811 21.7984 68.7989 22.7031 70.1937 22.7031C71.5884 22.7031 72.6062 21.8361 72.6062 20.2152C72.6062 18.6319 71.5884 17.7272 70.1937 17.7272C68.8366 17.7649 67.7811 18.6319 67.7811 20.2152ZM81.9926 28.2822H78.3738V14.7115H81.9926V28.2822Z" fill="#465CA9"/>
<path d="M88.1748 30.7702C88.1748 31.788 87.4209 32.5419 86.4408 32.5419C85.423 32.5419 84.6691 31.788 84.6691 30.7702C84.6691 29.7524 85.423 28.9984 86.4408 28.9984C87.4209 29.0361 88.1748 29.7901 88.1748 30.7702Z" fill="#465CA9"/>
<path d="M94.6586 32.6173C91.4921 32.6173 89.1926 30.3555 89.1926 27.2267C89.1926 24.0979 91.4544 21.8362 94.6586 21.8362C97.335 21.8362 99.3706 23.5702 99.7099 25.7566H96.5434C96.2795 25.0403 95.601 24.5503 94.6209 24.5503C93.1507 24.5503 92.2083 25.6812 92.2083 27.2267C92.2083 28.7723 93.1507 29.9032 94.6209 29.9032C95.601 29.9032 96.3172 29.4131 96.5811 28.6592H99.7476C99.2575 31.0718 97.2219 32.6173 94.6586 32.6173Z" fill="#465CA9"/>
<path d="M111.358 27.2644C111.358 30.3932 109.096 32.655 105.892 32.655C102.688 32.655 100.426 30.3932 100.426 27.2644C100.426 24.1356 102.688 21.8738 105.892 21.8738C109.096 21.8738 111.358 24.1356 111.358 27.2644ZM103.48 27.2644C103.48 28.8477 104.46 29.9786 105.93 29.9786C107.4 29.9786 108.38 28.8477 108.38 27.2644C108.38 25.6812 107.4 24.5503 105.93 24.5503C104.46 24.5503 103.48 25.6812 103.48 27.2644Z" fill="#465CA9"/>
<path d="M112.753 22.1H115.882V23.0801C116.485 22.2508 117.276 21.8362 118.407 21.8362C119.689 21.8362 120.782 22.3639 121.461 23.3063C122.215 22.3262 123.308 21.8362 124.891 21.8362C127.266 21.8362 128.849 23.5702 128.849 26.3974V32.3534H125.72V26.9629C125.72 25.4173 125.117 24.5503 123.986 24.5503C122.969 24.5503 122.441 25.3419 122.365 26.8121V32.3911H119.237V26.9629C119.237 25.4173 118.633 24.5503 117.503 24.5503C116.485 24.5503 115.957 25.3419 115.882 26.8121V32.3911H112.753V22.1Z" fill="#465CA9"/>
<path d="M12.1414 38.988H17.2681V43.0969H12.1414V38.988ZM12.4806 43.9639H19.7937V44.7932H13.4984V46.4141H19.8691V47.2435H12.4806V43.9639ZM16.288 42.2298V39.8173H13.1592V42.2298H16.288ZM18.7759 38.7618H19.756V43.4738H18.7759V38.7618Z" fill="white"/>
<path d="M20.9623 42.4183H29.557V43.2099H20.9623V42.4183ZM21.4523 40.3073C21.4523 39.1764 23.1487 38.7618 25.222 38.7618C27.2953 38.7618 28.9916 39.1764 28.9916 40.3073C28.9916 41.4382 27.2953 41.8906 25.222 41.8906C23.1487 41.8906 21.4523 41.4759 21.4523 40.3073ZM21.5277 45.2455H27.9738V44.6047H21.5277V43.8508H28.9539V45.9241H22.5078V46.5272H29.1047V47.2812H21.5654V45.2455H21.5277ZM28.0115 40.3073C28.0115 39.7419 26.7675 39.5157 25.2597 39.5157C23.7518 39.5157 22.5078 39.7419 22.5078 40.3073C22.5078 40.8728 23.7518 41.099 25.2597 41.099C26.7298 41.099 28.0115 40.8728 28.0115 40.3073Z" fill="white"/>
<path d="M41.0544 45.1701H37.2471V47.5827H36.2293V45.1701H32.4597V44.2277H41.0544V45.1701ZM32.6481 43.3607V42.4183C34.4953 42.4183 36.267 40.7597 36.6439 38.7241L37.6617 38.8748C37.5487 39.4403 37.3979 39.968 37.134 40.4581L40.8282 42.4937L40.3759 43.323L36.6816 41.212C35.7015 42.5314 34.2314 43.323 32.6481 43.3607Z" fill="white"/>
<path d="M46.7843 43.3607C45.1256 43.3607 44.0701 42.456 44.0701 41.1367C44.0701 39.8173 45.1256 38.9126 46.7843 38.9126C48.4429 38.9126 49.4607 39.8173 49.4607 41.1367C49.4984 42.4183 48.4429 43.3607 46.7843 43.3607ZM52.0994 47.3188L50.4408 45.9241C49.9131 46.7157 49.1591 47.2058 48.2921 47.2812L46.822 45.9995C46.2942 46.7534 45.5403 47.2435 44.711 47.2812V46.3764C45.6534 46.301 46.4827 45.1702 46.5958 43.8508L47.5759 43.9639C47.5382 44.4162 47.4251 44.8686 47.2366 45.2455L48.556 46.3387C49.3476 46.0749 50.0261 45.0571 50.1392 43.8508L51.1193 44.0016C51.0816 44.4162 51.0063 44.8309 50.8555 45.2079L52.7026 46.6403L52.0994 47.3188ZM46.7843 42.5314C47.7644 42.5314 48.4806 42.0037 48.4806 41.1367C48.4806 40.2319 47.8021 39.7419 46.7843 39.7419C45.7665 39.7419 45.0879 40.2696 45.0879 41.1367C45.0879 42.0037 45.7665 42.5314 46.7843 42.5314ZM51.9864 43.5492H51.0063V38.7618H51.9864V43.5492Z" fill="white"/>
<path d="M53.155 43.0592H61.7497V43.9639H53.155V43.0592ZM53.7581 44.7178H54.7759V46.4141H61.3351V47.3188H53.7581V44.7178ZM53.7581 38.7618H54.7759V41.212H61.222V42.1168H53.7581V38.7618Z" fill="white"/>
<path d="M68.0073 42.9838L70.7215 46.1879L70.0052 46.8288L67.7058 44.0393C67.1026 45.6979 66.0848 46.678 64.7654 46.8288V45.8487C66.1979 45.5848 67.1026 43.5869 67.2157 40.9859H64.9162V40.0434H67.2157V38.6487H68.2335V40.0434H70.4199V40.9859H68.1958C68.1958 41.7398 68.1204 42.4183 68.0073 42.9838ZM73.6618 43.2099H72.4555V47.3565H71.4754V38.7618H72.4555V42.2298H73.6618V43.2099Z" fill="white"/>
<path d="M82.445 45.1701H78.6377V47.5827H77.6199V45.1701H73.8503V44.2277H82.445V45.1701ZM74.1518 43.323V42.3806C75.9236 42.2298 77.356 41.3251 77.733 39.8927H74.378V38.9879H81.9927V39.8927H78.8262C78.7508 40.1942 78.6754 40.4958 78.5246 40.7974L82.2566 42.456L81.8419 43.2853L77.9969 41.5513C77.1299 42.6068 75.6974 43.2099 74.1518 43.323Z" fill="white"/>
<path d="M83.1235 41.3628C83.1235 39.9304 84.179 38.8749 85.8377 38.8749C87.534 38.8749 88.5518 39.9304 88.5518 41.3628C88.5518 42.7953 87.4963 43.8508 85.8377 43.8508C84.179 43.8508 83.1235 42.7953 83.1235 41.3628ZM83.8775 44.4539H84.8953V46.3764H91.3036V47.2812H83.8775V44.4539ZM87.5717 41.3628C87.5717 40.345 86.8555 39.7042 85.8377 39.7042C84.8199 39.7042 84.1036 40.345 84.1036 41.3628C84.1036 42.3806 84.8199 43.0215 85.8377 43.0215C86.8932 43.0215 87.5717 42.3806 87.5717 41.3628ZM90.0974 38.7618H91.0775V45.1325H90.0974V38.7618Z" fill="white"/>
<path d="M92.2461 42.3806H100.841V43.1723H92.2461V42.3806ZM92.8492 45.2456H99.2576V44.6047H92.8115V43.8508H100.238V45.9241H93.7916V46.5272H100.389V47.2812H92.8492V45.2456ZM92.8492 38.8749H100.2V39.6288H93.8293V40.8351H100.313V41.589H92.8492V38.8749Z" fill="white"/>
<path d="M101.444 45.9241H104.95C106.118 45.9241 107.174 45.811 107.777 45.5094V46.4518C107.212 46.7157 106.118 46.8665 104.912 46.8665H101.444V45.9241ZM101.746 41.6644C101.746 40.0435 102.839 38.9503 104.422 38.9503C105.968 38.9503 107.098 40.0435 107.098 41.6644C107.098 43.2853 105.968 44.3785 104.422 44.3785C102.839 44.3785 101.746 43.2853 101.746 41.6644ZM106.081 41.6644C106.081 40.6466 105.402 39.855 104.384 39.855C103.366 39.855 102.688 40.6466 102.688 41.6644C102.688 42.6822 103.329 43.4738 104.384 43.4738C105.402 43.4738 106.081 42.6822 106.081 41.6644ZM108.493 38.7618H109.473V47.3565H108.493V38.7618Z" fill="white"/>
<path d="M113.168 43.6623V42.7576C114.6 42.5314 115.542 41.4382 115.618 39.855H113.243V38.988H118.822V39.855H116.598C116.598 40.2696 116.523 40.6843 116.372 41.0613L119.048 42.833L118.52 43.5869L115.995 41.8906C115.429 42.8707 114.412 43.5492 113.168 43.6623ZM113.582 44.3785H120.971V47.3565H119.953V45.2455H113.582V44.3785ZM120.971 38.7618V43.8885H119.991V38.7618H120.971Z" fill="white"/>
<path d="M130.244 38.7618V47.3565H129.264V43.1722H126.964C126.399 45.434 124.816 46.8288 122.516 46.8288V45.8864C124.853 45.8864 126.173 44.0393 126.173 41.1743V40.0058H122.516V39.101H127.191V41.1743C127.191 41.5513 127.153 41.9283 127.115 42.2675H129.226V38.7618H130.244Z" fill="white"/>
<path d="M133.184 45.9995C134.24 45.9995 135.031 45.8864 135.672 45.5848V46.4895C135.107 46.7534 134.24 46.8665 133.147 46.8665H131.563V42.456H134.089V39.9681H131.563V39.0634H135.069V43.323H132.506V45.9618H133.184V45.9995ZM139.593 38.7618V47.3565H138.65V43.1346H137.255V47.2435H136.313V38.8372H137.255V42.2675H138.65V38.7995H139.593V38.7618Z" fill="white"/>
</g>
<defs>
<clipPath id="clip0_12023_8077">
<rect width="185.014" height="72" fill="white" transform="translate(0.493164 0.5)"/>
</clipPath>
</defs>
</svg>
