<svg width="20" height="20" viewBox="0 0 20 20" fill="none" xmlns="http://www.w3.org/2000/svg">
<g id="questionnaire-fill">
<path id="Vector" d="M5.37879 15.8333L1.66667 18.75V3.33333C1.66667 2.8731 2.03977 2.5 2.5 2.5H17.5C17.9603 2.5 18.3333 2.8731 18.3333 3.33333V15C18.3333 15.4602 17.9603 15.8333 17.5 15.8333H5.37879ZM9.16667 11.6667V13.3333H10.8333V11.6667H9.16667ZM7.13943 7.34455L8.774 7.67147C8.888 7.09852 9.39358 6.66667 10 6.66667C10.6903 6.66667 11.25 7.22631 11.25 7.91667C11.25 8.607 10.6903 9.16667 10 9.16667H9.16667V10.8333H10C11.6108 10.8333 12.9167 9.5275 12.9167 7.91667C12.9167 6.30583 11.6108 5 10 5C8.585 5 7.40531 6.00766 7.13943 7.34455Z" fill="#3B4894"/>
</g>
</svg>
