<svg width="62" height="62" viewBox="0 0 62 62" fill="none" xmlns="http://www.w3.org/2000/svg">
<g id="next">
<g id="Vector" opacity="0.8" filter="url(#filter0_d_9460_2737)">
<path d="M27.0053 43C24.7938 43 22.7138 42.5804 20.7653 41.7413C18.8181 40.901 17.1239 39.7609 15.6827 38.3209C14.2415 36.8821 13.1007 35.1896 12.2604 33.2436C11.4201 31.2975 11 29.2181 11 27.0053C11 24.7938 11.4196 22.7138 12.2587 20.7653C13.099 18.8181 14.2391 17.1239 15.6791 15.6827C17.1179 14.2415 18.8104 13.1007 20.7564 12.2604C22.7025 11.4201 24.7819 11 26.9947 11C29.2062 11 31.2862 11.4196 33.2347 12.2587C35.1819 13.099 36.8761 14.2391 38.3173 15.6791C39.7585 17.1179 40.8993 18.8104 41.7396 20.7564C42.5799 22.7025 43 24.7819 43 26.9947C43 29.2062 42.5804 31.2862 41.7413 33.2347C40.901 35.1819 39.7609 36.8761 38.3209 38.3173C36.8821 39.7585 35.1896 40.8993 33.2436 41.7396C31.2975 42.5799 29.2181 43 27.0053 43Z" fill="white"/>
</g>
<g id="Vector (Stroke)" opacity="0.8" filter="url(#filter1_d_9460_2737)">
<path fill-rule="evenodd" clip-rule="evenodd" d="M15.6827 38.3209C17.1239 39.7609 18.8181 40.901 20.7653 41.7413C22.7138 42.5804 24.7938 43 27.0053 43C29.2181 43 31.2975 42.5799 33.2436 41.7396C35.1896 40.8993 36.8821 39.7585 38.3209 38.3173C39.7609 36.8761 40.901 35.1819 41.7413 33.2347C42.5804 31.2862 43 29.2062 43 26.9947C43 24.7819 42.5799 22.7025 41.7396 20.7564C40.8993 18.8104 39.7585 17.1179 38.3173 15.6791C36.8761 14.2391 35.1819 13.099 33.2347 12.2587C31.2862 11.4196 29.2062 11 26.9947 11C24.7819 11 22.7025 11.4201 20.7564 12.2604C18.8104 13.1007 17.1179 14.2415 15.6791 15.6827C14.2391 17.1239 13.099 18.8181 12.2587 20.7653C11.4196 22.7138 11 24.7938 11 27.0053C11 29.2181 11.4201 31.2975 12.2604 33.2436C13.1007 35.1896 14.2415 36.8821 15.6827 38.3209ZM40.8232 32.8385C41.606 31.0204 42 29.0758 42 26.9947C42 24.9122 41.6054 22.9683 40.8215 21.1529C40.0293 19.3182 38.9588 17.7325 37.6108 16.3868L37.6105 16.3865C36.2623 15.0394 34.6746 13.9692 32.8385 13.1768C31.0204 12.394 29.0758 12 26.9947 12C24.9122 12 22.9683 12.3946 21.1529 13.1785C19.3182 13.9707 17.7325 15.0412 16.3868 16.3892L16.3865 16.3895C15.0395 17.7376 13.9693 19.3252 13.177 21.1612C12.394 22.9793 12 24.924 12 27.0053C12 29.0878 12.3946 31.0317 13.1785 32.8471C13.9707 34.6818 15.0412 36.2675 16.3892 37.6132L16.3895 37.6135C17.7377 38.9606 19.3254 40.0308 21.1615 40.8232C22.9796 41.606 24.9242 42 27.0053 42C29.0878 42 31.0317 41.6054 32.8471 40.8215C34.6818 40.0293 36.2675 38.9588 37.6132 37.6108L37.6135 37.6105C38.9606 36.2623 40.0308 34.6746 40.8232 32.8385Z" fill="#DDDDDD"/>
</g>
<path id="Vector (Stroke)_2" fill-rule="evenodd" clip-rule="evenodd" d="M24.8343 20.8343C25.1467 20.5219 25.6532 20.5219 25.9657 20.8343L31.5657 26.4343C31.8781 26.7467 31.8781 27.2533 31.5657 27.5657L25.9657 33.1657C25.6532 33.4781 25.1467 33.4781 24.8343 33.1657C24.5219 32.8533 24.5219 32.3467 24.8343 32.0343L29.8686 27L24.8343 21.9657C24.5219 21.6533 24.5219 21.1467 24.8343 20.8343Z" fill="#666666"/>
</g>
<defs>
<filter id="filter0_d_9460_2737" x="0" y="0" width="62" height="62" filterUnits="userSpaceOnUse" color-interpolation-filters="sRGB">
<feFlood flood-opacity="0" result="BackgroundImageFix"/>
<feColorMatrix in="SourceAlpha" type="matrix" values="0 0 0 0 0 0 0 0 0 0 0 0 0 0 0 0 0 0 127 0" result="hardAlpha"/>
<feOffset dx="4" dy="4"/>
<feGaussianBlur stdDeviation="7.5"/>
<feComposite in2="hardAlpha" operator="out"/>
<feColorMatrix type="matrix" values="0 0 0 0 0 0 0 0 0 0 0 0 0 0 0 0 0 0 0.15 0"/>
<feBlend mode="normal" in2="BackgroundImageFix" result="effect1_dropShadow_9460_2737"/>
<feBlend mode="normal" in="SourceGraphic" in2="effect1_dropShadow_9460_2737" result="shape"/>
</filter>
<filter id="filter1_d_9460_2737" x="0" y="0" width="62" height="62" filterUnits="userSpaceOnUse" color-interpolation-filters="sRGB">
<feFlood flood-opacity="0" result="BackgroundImageFix"/>
<feColorMatrix in="SourceAlpha" type="matrix" values="0 0 0 0 0 0 0 0 0 0 0 0 0 0 0 0 0 0 127 0" result="hardAlpha"/>
<feOffset dx="4" dy="4"/>
<feGaussianBlur stdDeviation="7.5"/>
<feComposite in2="hardAlpha" operator="out"/>
<feColorMatrix type="matrix" values="0 0 0 0 0 0 0 0 0 0 0 0 0 0 0 0 0 0 0.15 0"/>
<feBlend mode="normal" in2="BackgroundImageFix" result="effect1_dropShadow_9460_2737"/>
<feBlend mode="normal" in="SourceGraphic" in2="effect1_dropShadow_9460_2737" result="shape"/>
</filter>
</defs>
</svg>
